<svg width="22" height="22" viewBox="0 0 22 22" fill="none" xmlns="http://www.w3.org/2000/svg">
<path d="M20.0002 20L15.6572 15.657M15.6572 15.657C16.4001 14.9142 16.9894 14.0322 17.3914 13.0616C17.7935 12.091 18.0004 11.0507 18.0004 10.0001C18.0004 8.94952 17.7935 7.90922 17.3914 6.9386C16.9894 5.96798 16.4001 5.08606 15.6572 4.34318C14.9143 3.6003 14.0324 3.01102 13.0618 2.60897C12.0911 2.20693 11.0508 2 10.0002 2C8.9496 2 7.90929 2.20693 6.93866 2.60897C5.96803 3.01102 5.08609 3.6003 4.34321 4.34318C2.84288 5.84349 2 7.87835 2 10.0001C2 12.1219 2.84288 14.1567 4.34321 15.657C5.84354 17.1574 7.87842 18.0002 10.0002 18.0002C12.122 18.0002 14.1569 17.1574 15.6572 15.657Z" stroke="#63C54A" stroke-width="2.5" stroke-linecap="round" stroke-linejoin="round"/>
</svg>
