<svg width="22" height="20" viewBox="0 0 22 20" fill="none" xmlns="http://www.w3.org/2000/svg">
<path d="M20.103 16.0672V15.2421C20.103 14.4427 19.5703 13.7978 18.9098 13.7978H18.0896V8.57527C18.0896 3.84282 14.9148 0 11.005 0C7.09524 0 3.92044 3.84282 3.92044 8.57527V13.7978H3.1002C2.43983 13.7978 1.90703 14.4427 1.90703 15.2421V16.0672C0.852395 16.093 0 17.1374 0 18.4139V19.4841C0 19.7678 0.191794 20 0.426217 20H21.5734C21.8078 20 21.9996 19.7678 21.9996 19.4841V18.4139C22.0207 17.1373 21.1578 16.0929 20.1032 16.0672H20.103ZM4.78311 8.58794C4.78311 4.42301 7.57432 1.0445 11.0152 1.0445C14.4562 1.0445 17.2474 4.42301 17.2474 8.58794V13.8105H4.78336L4.78311 8.58794ZM2.78042 15.2547C2.78042 15.0354 2.9296 14.8419 3.12139 14.8419H18.931C19.1122 14.8419 19.272 15.0225 19.272 15.2547V16.0669L2.78042 16.0672V15.2547ZM21.1681 18.9685H0.87352V18.4139C0.87352 17.6788 1.36367 17.0858 1.97078 17.0858H20.0921C20.6994 17.0858 21.1893 17.679 21.1893 18.4139V18.9685H21.1681Z" fill="#999999"/>
</svg>
